<?xml version="1.0" encoding="utf-8"?>
<!-- Generator: Adobe Illustrator 27.1.1, SVG Export Plug-In . SVG Version: 6.00 Build 0)  -->
<svg version="1.1" id="Livello_1" xmlns="http://www.w3.org/2000/svg" xmlns:xlink="http://www.w3.org/1999/xlink" x="0px" y="0px"
	 viewBox="0 0 1920 1080" style="enable-background:new 0 0 1920 1080;" xml:space="preserve">
<style type="text/css">
	.st0{fill:none;}
	.st1{fill:none;stroke:#F17537;stroke-width:2;}
	.st2{fill:#88FFB6;}
	.st3{fill:none;stroke:#FF00B1;stroke-width:2.0008;stroke-miterlimit:4.0017;}
	.st4{fill:none;stroke:#FF00B1;stroke-width:2;}
</style>
<circle class="st0" cx="960" cy="540" r="540"/>
<circle class="st1" cx="960" cy="540" r="539"/>
<path class="st0" d="M960,16.5l960,1047H0L960,16.5z"/>
<path class="st2" d="M960,19.46L4.55,1061.5h1910.91L960,19.46 M960,16.5l960,1047H0L960,16.5z"/>
<path class="st0" d="M960,1063.5L0,16.5h1920L960,1063.5z"/>
<path class="st2" d="M960,1060.54L1915.45,18.5H4.55L960,1060.54 M960,1063.5L0,16.5h1920L960,1063.5z"/>
<rect x="692.39" y="55.29" transform="matrix(0.4848 -0.8746 0.8746 0.4848 22.2984 1117.8545)" class="st0" width="535.23" height="969.41"/>
<rect x="693.39" y="56.29" transform="matrix(0.4848 -0.8746 0.8746 0.4848 22.2984 1117.8545)" class="st3" width="533.23" height="967.41"/>
<rect x="475.5" y="272.5" transform="matrix(0.866 -0.5 0.5 0.866 -141.3844 552.3463)" class="st0" width="969" height="535"/>
<rect x="476.5" y="273.5" transform="matrix(0.866 -0.5 0.5 0.866 -141.3844 552.3463)" class="st4" width="967" height="533"/>
</svg>
