<?xml version="1.0" encoding="utf-8"?>
<!-- Generator: Adobe Illustrator 27.1.1, SVG Export Plug-In . SVG Version: 6.00 Build 0)  -->
<svg version="1.1" id="Livello_1" xmlns="http://www.w3.org/2000/svg" xmlns:xlink="http://www.w3.org/1999/xlink" x="0px" y="0px"
	 viewBox="0 0 1920 1080" style="enable-background:new 0 0 1920 1080;" xml:space="preserve">
<style type="text/css">
	.st0{fill:none;}
	.st1{fill:none;stroke:#FF00B1;stroke-width:2.0008;stroke-miterlimit:4.0017;}
	.st2{fill:none;stroke:#FF00B1;stroke-width:2;}
</style>
<g id="Raggruppa_74" transform="translate(-228.06 -50)">
	<g id="Rettangolo_4" transform="matrix(0.875, 0.485, -0.485, 0.875, 487.434, 50)">
		
			<rect x="462.4" y="-277.5" transform="matrix(2.522675e-06 1 -1 2.522675e-06 936.9122 -522.9152)" class="st0" width="535" height="969"/>
		
			<rect x="463.4" y="-276.5" transform="matrix(2.522675e-06 1 -1 2.522675e-06 936.9122 -522.9152)" class="st1" width="533" height="967"/>
	</g>
	<g id="Rettangolo_5" transform="translate(553.322 534.5) rotate(-30)">
		
			<rect x="178.3" y="179.3" transform="matrix(-1 2.341061e-06 -2.341061e-06 -1 1325.6724 893.5474)" class="st0" width="969" height="535"/>
		
			<rect x="179.3" y="180.3" transform="matrix(-1 2.341061e-06 -2.341061e-06 -1 1325.6724 893.5474)" class="st2" width="967" height="533"/>
	</g>
</g>
</svg>
